<svg xmlns="http://www.w3.org/2000/svg" viewBox="0 0 513 513"><defs><style>.a{fill:none;stroke:#000;stroke-miterlimit:10;}</style></defs><title>dynamic_panel_svg</title><path class="a" d="M18.58,21H12.47V14.91h6.11Zm32.09,0H44.56V14.91h6.11Zm32.09,0H76.65V14.91h6.11Zm32.1,0h-6.12V14.91h6.12ZM147,21h-6.11V14.91H147ZM179,21h-6.11V14.91H179Zm32.09,0H205V14.91h6.11Zm32.1,0h-6.12V14.91h6.12Zm32.09,0h-6.11V14.91h6.11Zm32.09,0H301.3V14.91h6.11Zm32.09,0h-6.11V14.91h6.11Zm32.1,0h-6.12V14.91h6.12Zm32.09,0h-6.11V14.91h6.11Zm32.09,0h-6.11V14.91h6.11Zm32.09,0h-6.11V14.91h6.11ZM500,21h-6.12V14.91H500ZM18.58,53H12.47V46.91h6.11Zm32.09,0H44.56V46.91h6.11Zm32.09,0H76.65V46.91h6.11Zm32.1,0h-6.12V46.91h6.12ZM147,53h-6.11V46.91H147ZM179,53h-6.11V46.91H179Zm32.09,0H205V46.91h6.11Zm32.1,0h-6.12V46.91h6.12Zm32.09,0h-6.11V46.91h6.11Zm32.09,0H301.3V46.91h6.11Zm32.09,0h-6.11V46.91h6.11Zm32.1,0h-6.12V46.91h6.12Zm32.09,0h-6.11V46.91h6.11Zm32.09,0h-6.11V46.91h6.11Zm32.09,0h-6.11V46.91h6.11ZM500,53h-6.12V46.91H500ZM18.58,85H12.47V78.91h6.11Zm32.09,0H44.56V78.91h6.11Zm32.09,0H76.65V78.91h6.11Zm32.1,0h-6.12V78.91h6.12ZM147,85h-6.11V78.91H147ZM179,85h-6.11V78.91H179Zm32.09,0H205V78.91h6.11Zm32.1,0h-6.12V78.91h6.12Zm32.09,0h-6.11V78.91h6.11Zm32.09,0H301.3V78.91h6.11Zm32.09,0h-6.11V78.91h6.11Zm32.1,0h-6.12V78.91h6.12Zm32.09,0h-6.11V78.91h6.11Zm32.09,0h-6.11V78.91h6.11Zm32.09,0h-6.11V78.91h6.11ZM500,85h-6.12V78.91H500ZM18.58,117H12.47v-6.11h6.11Zm32.09,0H44.56v-6.11h6.11Zm32.09,0H76.65v-6.11h6.11Zm32.1,0h-6.12v-6.11h6.12ZM147,117h-6.11v-6.11H147ZM179,117h-6.11v-6.11H179Zm32.09,0H205v-6.11h6.11Zm32.1,0h-6.12v-6.11h6.12Zm32.09,0h-6.11v-6.11h6.11Zm32.09,0H301.3v-6.11h6.11Zm32.09,0h-6.11v-6.11h6.11Zm32.1,0h-6.12v-6.11h6.12Zm32.09,0h-6.11v-6.11h6.11Zm32.09,0h-6.11v-6.11h6.11Zm32.09,0h-6.11v-6.11h6.11Zm32.1,0h-6.12v-6.11H500ZM18.58,149H12.47v-6.11h6.11Zm32.09,0H44.56v-6.11h6.11Zm32.09,0H76.65v-6.11h6.11Zm32.1,0h-6.12v-6.11h6.12ZM147,149h-6.11v-6.11H147ZM179,149h-6.11v-6.11H179Zm32.09,0H205v-6.11h6.11Zm32.1,0h-6.12v-6.11h6.12Zm32.09,0h-6.11v-6.11h6.11Zm32.09,0H301.3v-6.11h6.11Zm32.09,0h-6.11v-6.11h6.11Zm32.1,0h-6.12v-6.11h6.12Zm32.09,0h-6.11v-6.11h6.11Zm32.09,0h-6.11v-6.11h6.11Zm32.09,0h-6.11v-6.11h6.11Zm32.1,0h-6.12v-6.11H500ZM18.58,181H12.47v-6.11h6.11Zm32.09,0H44.56v-6.11h6.11Zm32.09,0H76.65v-6.11h6.11Zm32.1,0h-6.12v-6.11h6.12ZM147,181h-6.11v-6.11H147ZM179,181h-6.11v-6.11H179Zm32.09,0H205v-6.11h6.11Zm32.1,0h-6.12v-6.11h6.12Zm32.09,0h-6.11v-6.11h6.11Zm32.09,0H301.3v-6.11h6.11Zm32.09,0h-6.11v-6.11h6.11Zm32.1,0h-6.12v-6.11h6.12Zm32.09,0h-6.11v-6.11h6.11Zm32.09,0h-6.11v-6.11h6.11Zm32.09,0h-6.11v-6.11h6.11Zm32.1,0h-6.12v-6.11H500ZM18.58,213H12.47v-6.11h6.11Zm32.09,0H44.56v-6.11h6.11Zm32.09,0H76.65v-6.11h6.11Zm32.1,0h-6.12v-6.11h6.12ZM147,213h-6.11v-6.11H147ZM179,213h-6.11v-6.11H179Zm32.09,0H205v-6.11h6.11Zm32.1,0h-6.12v-6.11h6.12Zm32.09,0h-6.11v-6.11h6.11Zm32.09,0H301.3v-6.11h6.11Zm32.09,0h-6.11v-6.11h6.11Zm32.1,0h-6.12v-6.11h6.12Zm32.09,0h-6.11v-6.11h6.11Zm32.09,0h-6.11v-6.11h6.11Zm32.09,0h-6.11v-6.11h6.11Zm32.1,0h-6.12v-6.11H500ZM18.58,245H12.47v-6.11h6.11Zm32.09,0H44.56v-6.11h6.11Zm32.09,0H76.65v-6.11h6.11Zm32.1,0h-6.12v-6.11h6.12ZM147,245h-6.11v-6.11H147ZM179,245h-6.11v-6.11H179Zm32.09,0H205v-6.11h6.11Zm32.1,0h-6.12v-6.11h6.12Zm32.09,0h-6.11v-6.11h6.11Zm32.09,0H301.3v-6.11h6.11Zm32.09,0h-6.11v-6.11h6.11Zm32.1,0h-6.12v-6.11h6.12Zm32.09,0h-6.11v-6.11h6.11Zm32.09,0h-6.11v-6.11h6.11Zm32.09,0h-6.11v-6.11h6.11Zm32.1,0h-6.12v-6.11H500ZM18.58,277H12.47v-6.11h6.11Zm32.09,0H44.56v-6.11h6.11Zm32.09,0H76.65v-6.11h6.11Zm32.1,0h-6.12v-6.11h6.12ZM147,277h-6.11v-6.11H147ZM179,277h-6.11v-6.11H179Zm32.09,0H205v-6.11h6.11Zm32.1,0h-6.12v-6.11h6.12Zm32.09,0h-6.11v-6.11h6.11Zm32.09,0H301.3v-6.11h6.11Zm32.09,0h-6.11v-6.11h6.11Zm32.1,0h-6.12v-6.11h6.12Zm32.09,0h-6.11v-6.11h6.11Zm32.09,0h-6.11v-6.11h6.11Zm32.09,0h-6.11v-6.11h6.11Zm32.1,0h-6.12v-6.11H500ZM18.58,309H12.47v-6.11h6.11Zm32.09,0H44.56v-6.11h6.11Zm32.09,0H76.65v-6.11h6.11Zm32.1,0h-6.12v-6.11h6.12ZM147,309h-6.11v-6.11H147ZM179,309h-6.11v-6.11H179Zm32.09,0H205v-6.11h6.11Zm32.1,0h-6.12v-6.11h6.12Zm32.09,0h-6.11v-6.11h6.11Zm32.09,0H301.3v-6.11h6.11Zm32.09,0h-6.11v-6.11h6.11Zm32.1,0h-6.12v-6.11h6.12Zm32.09,0h-6.11v-6.11h6.11Zm32.09,0h-6.11v-6.11h6.11Zm32.09,0h-6.11v-6.11h6.11Zm32.1,0h-6.12v-6.11H500ZM18.58,341H12.47v-6.11h6.11Zm32.09,0H44.56v-6.11h6.11Zm32.09,0H76.65v-6.11h6.11Zm32.1,0h-6.12v-6.11h6.12ZM147,341h-6.11v-6.11H147ZM179,341h-6.11v-6.11H179Zm32.09,0H205v-6.11h6.11Zm32.1,0h-6.12v-6.11h6.12Zm32.09,0h-6.11v-6.11h6.11Zm32.09,0H301.3v-6.11h6.11Zm32.09,0h-6.11v-6.11h6.11Zm32.1,0h-6.12v-6.11h6.12Zm32.09,0h-6.11v-6.11h6.11Zm32.09,0h-6.11v-6.11h6.11Zm32.09,0h-6.11v-6.11h6.11Zm32.1,0h-6.12v-6.11H500ZM18.58,373H12.47v-6.11h6.11Zm32.09,0H44.56v-6.11h6.11Zm32.09,0H76.65v-6.11h6.11Zm32.1,0h-6.12v-6.11h6.12ZM147,373h-6.11v-6.11H147ZM179,373h-6.11v-6.11H179Zm32.09,0H205v-6.11h6.11Zm32.1,0h-6.12v-6.11h6.12Zm32.09,0h-6.11v-6.11h6.11Zm32.09,0H301.3v-6.11h6.11Zm32.09,0h-6.11v-6.11h6.11Zm32.1,0h-6.12v-6.11h6.12Zm32.09,0h-6.11v-6.11h6.11Zm32.09,0h-6.11v-6.11h6.11Zm32.09,0h-6.11v-6.11h6.11Zm32.1,0h-6.12v-6.11H500ZM18.58,405H12.47v-6.11h6.11Zm32.09,0H44.56v-6.11h6.11Zm32.09,0H76.65v-6.11h6.11Zm32.1,0h-6.12v-6.11h6.12ZM147,405h-6.11v-6.11H147ZM179,405h-6.11v-6.11H179Zm32.09,0H205v-6.11h6.11Zm32.1,0h-6.12v-6.11h6.12Zm32.09,0h-6.11v-6.11h6.11Zm32.09,0H301.3v-6.11h6.11Zm32.09,0h-6.11v-6.11h6.11Zm32.1,0h-6.12v-6.11h6.12Zm32.09,0h-6.11v-6.11h6.11Zm32.09,0h-6.11v-6.11h6.11Zm32.09,0h-6.11v-6.11h6.11Zm32.1,0h-6.12v-6.11H500ZM18.58,437H12.47v-6.11h6.11Zm32.09,0H44.56v-6.11h6.11Zm32.09,0H76.65v-6.11h6.11Zm32.1,0h-6.12v-6.11h6.12ZM147,437h-6.11v-6.11H147ZM179,437h-6.11v-6.11H179Zm32.09,0H205v-6.11h6.11Zm32.1,0h-6.12v-6.11h6.12Zm32.09,0h-6.11v-6.11h6.11Zm32.09,0H301.3v-6.11h6.11Zm32.09,0h-6.11v-6.11h6.11Zm32.1,0h-6.12v-6.11h6.12Zm32.09,0h-6.11v-6.11h6.11Zm32.09,0h-6.11v-6.11h6.11Zm32.09,0h-6.11v-6.11h6.11Zm32.1,0h-6.12v-6.11H500ZM18.58,469H12.47v-6.11h6.11Zm32.09,0H44.56v-6.11h6.11Zm32.09,0H76.65v-6.11h6.11Zm32.1,0h-6.12v-6.11h6.12ZM147,469h-6.11v-6.11H147ZM179,469h-6.11v-6.11H179Zm32.09,0H205v-6.11h6.11Zm32.1,0h-6.12v-6.11h6.12Zm32.09,0h-6.11v-6.11h6.11Zm32.09,0H301.3v-6.11h6.11Zm32.09,0h-6.11v-6.11h6.11Zm32.1,0h-6.12v-6.11h6.12Zm32.09,0h-6.11v-6.11h6.11Zm32.09,0h-6.11v-6.11h6.11Zm32.09,0h-6.11v-6.11h6.11Zm32.1,0h-6.12v-6.11H500ZM18.58,501H12.47v-6.11h6.11Zm32.09,0H44.56v-6.11h6.11Zm32.09,0H76.65v-6.11h6.11Zm32.1,0h-6.12v-6.11h6.12ZM147,501h-6.11v-6.11H147ZM179,501h-6.11v-6.11H179Zm32.09,0H205v-6.11h6.11Zm32.1,0h-6.12v-6.11h6.12Zm32.09,0h-6.11v-6.11h6.11Zm32.09,0H301.3v-6.11h6.11Zm32.09,0h-6.11v-6.11h6.11Zm32.1,0h-6.12v-6.11h6.12Zm32.09,0h-6.11v-6.11h6.11Zm32.09,0h-6.11v-6.11h6.11Zm32.09,0h-6.11v-6.11h6.11Zm32.1,0h-6.12v-6.11H500ZM512.47.47H.47v512h512Z" transform="translate(0.03 0.03)"/></svg>